<?xml version="1.0" encoding="UTF-8"?>
<svg height="600" width="800" xmlns="http://www.w3.org/2000/svg" xmlns:xlink="http://www.w3.org/1999/xlink">
    <g id="Notes" font-family="'LucidaGrande', 'Lucida Grande', sans-serif" font-size="13">
        <rect fill="white" height="600.0" width="800.0" x="0.0" y="0.0" />
        <g font-size="13">
            <text x="18.0" y="176.0">Small</text>
            <text x="18.0" y="376.0">Medium</text>
            <text x="18.0" y="576.0">Large</text>
        </g>
        <g font-size="9">
            <text x="250.0" y="30.0">Ultralight</text>
            <text x="450.0" y="30.0">Regular</text>
            <text x="650.0" y="30.0">Black</text>
            <text id="template-version" fill="#505050" text-anchor="end" x="785.0" y="575.0">Template v.3.0</text>
            <a href="https://wangchujiang.com/#/app">
                <text fill="#505050" text-anchor="end" x="785.0" y="590.0">https://wangchujiang.com/#/app</text>
            </a>
        </g>
    </g>
    <g id="Guides" stroke="rgb(39, 170, 225)" stroke-width="0.5">
        <path id="Capline-S" d="M18,76 l800,0" />
        <path id="H-reference" d="M85,145.755 L87.685,145.755 L113.369,79.287 L114.052,79.287 L114.052,76 L112.148,76 L85,145.755 Z M95.693,121.536 L130.996,121.536 L130.263,119.313 L96.474,119.313 L95.693,121.536 Z M139.15,145.755 L141.787,145.755 L114.638,76 L113.466,76 L113.466,79.287 L139.15,145.755 Z" stroke="none" />
        <path id="Baseline-S" d="M18,146 l800,0" />
        <path id="left-margin-Ultralight-S" d="M220,56 l0,110" />
        <path id="right-margin-Ultralight-S" d="M310,56 l0,110" />
        <path id="left-margin-Regular-S" d="M420,56 l0,110" />
        <path id="right-margin-Regular-S" d="M510,56 l0,110" />
        <path id="left-margin-Black-S" d="M620,56 l0,110" />
        <path id="right-margin-Black-S" d="M710,56 l0,110" />
        <path id="Capline-M" d="M18,276 l800,0" />
        <path id="Baseline-M" d="M18,346 l800,0" />
        <path id="Capline-L" d="M18,476 l800,0" />
        <path id="Baseline-L" d="M18,546 l800,0" />
    </g>
    <g id="Symbols">
        <g id="Ultralight-S">
            <path d="M265,76 C264.808,76 264.627,76.095 264.523,76.256 L264.046,77.056 L263.109,78.658 L261.2,81.879 L257.417,88.303 L256.787,89.376 C256.37,89.534 255.969,89.722 255.56,89.905 L254.316,89.581 L247.091,87.723 L243.479,86.786 L241.672,86.326 L240.769,86.088 C240.582,86.047 240.376,86.106 240.241,86.241 C240.106,86.376 240.047,86.582 240.088,86.769 L240.326,87.672 L240.786,89.479 L241.723,93.091 L243.581,100.316 L243.905,101.56 C243.722,101.969 243.534,102.37 243.376,102.787 L242.303,103.417 L235.879,107.2 L232.658,109.109 L231.056,110.046 L230.256,110.523 C230.095,110.627 230,110.808 230,111 C230,111.192 230.095,111.373 230.256,111.477 L231.056,111.954 L232.658,112.891 L235.879,114.783 L242.303,118.583 L243.376,119.213 C243.534,119.63 243.722,120.031 243.905,120.44 L243.581,121.684 L241.723,128.909 L240.786,132.521 L240.326,134.328 L240.088,135.231 C240.047,135.418 240.106,135.607 240.241,135.742 C240.376,135.877 240.582,135.936 240.769,135.895 L241.672,135.674 L243.479,135.197 L247.091,134.277 L254.316,132.419 L255.56,132.095 C255.969,132.278 256.37,132.466 256.787,132.624 L257.417,133.697 L261.2,140.121 L263.109,143.342 L264.046,144.944 L264.523,145.744 C264.627,145.905 264.808,146 265,146 C265.192,146 265.373,145.905 265.477,145.744 L265.954,144.944 L266.891,143.342 L268.8,140.121 L272.583,133.697 L273.213,132.624 C273.63,132.466 274.031,132.278 274.44,132.095 L275.684,132.419 L282.909,134.277 L286.521,135.197 L288.328,135.674 L289.231,135.895 C289.418,135.936 289.624,135.877 289.759,135.742 C289.894,135.607 289.953,135.418 289.912,135.231 L289.674,134.328 L289.214,132.521 L288.277,128.909 L286.419,121.684 L286.095,120.44 C286.278,120.031 286.466,119.63 286.624,119.213 L287.697,118.583 L294.121,114.783 L297.342,112.891 L298.944,111.954 L299.744,111.477 C299.905,111.373 300,111.192 300,111 C300,110.808 299.905,110.627 299.744,110.523 L298.944,110.046 L297.342,109.109 L294.121,107.2 L287.697,103.417 L286.624,102.787 C286.466,102.37 286.278,101.969 286.095,101.56 L286.419,100.316 L288.277,93.091 L289.214,89.479 L289.674,87.672 L289.912,86.769 C289.953,86.582 289.894,86.376 289.759,86.241 C289.624,86.106 289.418,86.047 289.231,86.088 L288.328,86.326 L286.521,86.786 L282.909,87.723 L275.684,89.581 L274.44,89.905 C274.031,89.722 273.63,89.534 273.213,89.376 L272.583,88.303 L268.8,81.879 L266.891,78.658 L265.954,77.056 L265.477,76.256 C265.373,76.095 265.192,76 265,76 Z M265,90.296 C270.3,90.296 275.594,92.319 279.637,96.363 C287.724,104.45 287.724,117.55 279.637,125.637 C271.55,133.724 258.45,133.724 250.363,125.637 C242.276,117.55 242.276,104.45 250.363,96.363 C254.406,92.319 259.7,90.296 265,90.296 Z M265,90.296" />
            <path d="M274.669,100.201 C275.529,101.889 275.529,104.625 274.669,106.314 C273.808,108.002 272.413,108.002 271.552,106.314 C270.692,104.625 270.692,101.889 271.552,100.201 C272.413,98.512 273.808,98.512 274.669,100.201 Z M274.669,100.201" />
            <path d="M270.858,97.48 C270.892,97.08 270.578,96.736 270.177,96.734 C269.772,96.732 269.453,97.077 269.486,97.48 L269.486,98.759 C269.485,99.058 269.526,99.355 269.608,99.643 C269.722,100.043 269.913,100.418 270.171,100.745 C270.441,101.087 270.781,101.371 271.176,101.555 C271.504,101.707 271.861,101.786 272.222,101.787 L272.576,100.591 C272.242,100.606 271.913,100.509 271.642,100.314 C271.357,100.109 271.155,99.812 271.023,99.487 C270.888,99.153 270.827,98.795 270.845,98.436 L270.858,97.48 Z M270.858,97.48" />
            <path d="M266.208,109.792 C266.875,110.459 266.875,111.541 266.208,112.208 C265.541,112.875 264.459,112.875 263.792,112.208 C263.125,111.541 263.125,110.459 263.792,109.792 C264.459,109.125 265.541,109.125 266.208,109.792 Z M266.208,109.792" />
            <path d="M256.481,116.425 C259.322,116.48 262.158,116.702 265,116.702 C267.842,116.702 270.678,116.48 273.519,116.425 C273.702,116.421 273.85,116.426 273.971,116.431 C274.091,116.436 274.183,116.45 274.257,116.476 C274.493,116.561 274.678,116.747 274.763,116.983 C274.797,117.076 274.814,117.174 274.815,117.272 C274.816,117.371 274.801,117.47 274.763,117.562 C274.671,117.789 274.463,117.936 274.257,118.069 C271.511,119.837 268.261,120.502 265,120.502 C261.743,120.502 258.482,119.833 255.743,118.069 C255.537,117.936 255.329,117.789 255.237,117.562 C255.199,117.47 255.184,117.371 255.185,117.272 C255.186,117.174 255.203,117.076 255.237,116.983 C255.322,116.747 255.507,116.561 255.743,116.476 C255.817,116.45 255.909,116.436 256.029,116.431 C256.15,116.426 256.298,116.421 256.481,116.425 Z M256.481,116.425" />
            <path d="M258.537,100.201 C259.397,101.889 259.397,104.625 258.537,106.314 C257.676,108.002 256.281,108.002 255.42,106.314 C254.56,104.625 254.56,101.889 255.42,100.201 C256.281,98.512 257.676,98.512 258.537,100.201 Z M258.537,100.201" />
            <path d="M254.726,97.48 C254.76,97.08 254.446,96.736 254.045,96.734 C253.64,96.732 253.32,97.077 253.354,97.48 L253.354,98.759 C253.353,99.058 253.394,99.355 253.476,99.643 C253.59,100.043 253.781,100.418 254.039,100.745 C254.309,101.087 254.649,101.371 255.044,101.555 C255.372,101.707 255.729,101.786 256.09,101.787 L256.444,100.591 C256.11,100.606 255.781,100.509 255.51,100.314 C255.225,100.109 255.023,99.812 254.891,99.487 C254.756,99.153 254.695,98.795 254.713,98.436 L254.726,97.48 Z M254.726,97.48" />
        </g>
        <g id="Regular-S">
            <path d="M465,76 C464.808,76 464.627,76.095 464.523,76.256 L464.046,77.056 L463.109,78.658 L461.2,81.879 L457.417,88.303 L456.787,89.376 C456.37,89.534 455.969,89.722 455.56,89.905 L454.316,89.581 L447.091,87.723 L443.479,86.786 L441.672,86.326 L440.769,86.088 C440.582,86.047 440.376,86.106 440.241,86.241 C440.106,86.376 440.047,86.582 440.088,86.769 L440.326,87.672 L440.786,89.479 L441.723,93.091 L443.581,100.316 L443.905,101.56 C443.722,101.969 443.534,102.37 443.376,102.787 L442.303,103.417 L435.879,107.2 L432.658,109.109 L431.056,110.046 L430.256,110.523 C430.095,110.627 430,110.808 430,111 C430,111.192 430.095,111.373 430.256,111.477 L431.056,111.954 L432.658,112.891 L435.879,114.783 L442.303,118.583 L443.376,119.213 C443.534,119.63 443.722,120.031 443.905,120.44 L443.581,121.684 L441.723,128.909 L440.786,132.521 L440.326,134.328 L440.088,135.231 C440.047,135.418 440.106,135.607 440.241,135.742 C440.376,135.877 440.582,135.936 440.769,135.895 L441.672,135.674 L443.479,135.197 L447.091,134.277 L454.316,132.419 L455.56,132.095 C455.969,132.278 456.37,132.466 456.787,132.624 L457.417,133.697 L461.2,140.121 L463.109,143.342 L464.046,144.944 L464.523,145.744 C464.627,145.905 464.808,146 465,146 C465.192,146 465.373,145.905 465.477,145.744 L465.954,144.944 L466.891,143.342 L468.8,140.121 L472.583,133.697 L473.213,132.624 C473.63,132.466 474.031,132.278 474.44,132.095 L475.684,132.419 L482.909,134.277 L486.521,135.197 L488.328,135.674 L489.231,135.895 C489.418,135.936 489.624,135.877 489.759,135.742 C489.894,135.607 489.953,135.418 489.912,135.231 L489.674,134.328 L489.214,132.521 L488.277,128.909 L486.419,121.684 L486.095,120.44 C486.278,120.031 486.466,119.63 486.624,119.213 L487.697,118.583 L494.121,114.783 L497.342,112.891 L498.944,111.954 L499.744,111.477 C499.905,111.373 500,111.192 500,111 C500,110.808 499.905,110.627 499.744,110.523 L498.944,110.046 L497.342,109.109 L494.121,107.2 L487.697,103.417 L486.624,102.787 C486.466,102.37 486.278,101.969 486.095,101.56 L486.419,100.316 L488.277,93.091 L489.214,89.479 L489.674,87.672 L489.912,86.769 C489.953,86.582 489.894,86.376 489.759,86.241 C489.624,86.106 489.418,86.047 489.231,86.088 L488.328,86.326 L486.521,86.786 L482.909,87.723 L475.684,89.581 L474.44,89.905 C474.031,89.722 473.63,89.534 473.213,89.376 L472.583,88.303 L468.8,81.879 L466.891,78.658 L465.954,77.056 L465.477,76.256 C465.373,76.095 465.192,76 465,76 Z M465,90.296 C470.3,90.296 475.594,92.319 479.637,96.363 C487.724,104.45 487.724,117.55 479.637,125.637 C471.55,133.724 458.45,133.724 450.363,125.637 C442.276,117.55 442.276,104.45 450.363,96.363 C454.406,92.319 459.7,90.296 465,90.296 Z M465,90.296" />
            <path d="M474.669,100.201 C475.529,101.889 475.529,104.625 474.669,106.314 C473.808,108.002 472.413,108.002 471.552,106.314 C470.692,104.625 470.692,101.889 471.552,100.201 C472.413,98.512 473.808,98.512 474.669,100.201 Z M474.669,100.201" />
            <path d="M470.858,97.48 C470.892,97.08 470.578,96.736 470.177,96.734 C469.772,96.732 469.453,97.077 469.486,97.48 L469.486,98.759 C469.485,99.058 469.526,99.355 469.608,99.643 C469.722,100.043 469.913,100.418 470.171,100.745 C470.441,101.087 470.781,101.371 471.176,101.555 C471.504,101.707 471.861,101.786 472.222,101.787 L472.576,100.591 C472.242,100.606 471.913,100.509 471.642,100.314 C471.357,100.109 471.155,99.812 471.023,99.487 C470.888,99.153 470.827,98.795 470.845,98.436 L470.858,97.48 Z M470.858,97.48" />
            <path d="M466.208,109.792 C466.875,110.459 466.875,111.541 466.208,112.208 C465.541,112.875 464.459,112.875 463.792,112.208 C463.125,111.541 463.125,110.459 463.792,109.792 C464.459,109.125 465.541,109.125 466.208,109.792 Z M466.208,109.792" />
            <path d="M456.481,116.425 C459.322,116.48 462.158,116.702 465,116.702 C467.842,116.702 470.678,116.48 473.519,116.425 C473.702,116.421 473.85,116.426 473.971,116.431 C474.091,116.436 474.183,116.45 474.257,116.476 C474.493,116.561 474.678,116.747 474.763,116.983 C474.797,117.076 474.814,117.174 474.815,117.272 C474.816,117.371 474.801,117.47 474.763,117.562 C474.671,117.789 474.463,117.936 474.257,118.069 C471.511,119.837 468.261,120.502 465,120.502 C461.743,120.502 458.482,119.833 455.743,118.069 C455.537,117.936 455.329,117.789 455.237,117.562 C455.199,117.47 455.184,117.371 455.185,117.272 C455.186,117.174 455.203,117.076 455.237,116.983 C455.322,116.747 455.507,116.561 455.743,116.476 C455.817,116.45 455.909,116.436 456.029,116.431 C456.15,116.426 456.298,116.421 456.481,116.425 Z M456.481,116.425" />
            <path d="M458.537,100.201 C459.397,101.889 459.397,104.625 458.537,106.314 C457.676,108.002 456.281,108.002 455.42,106.314 C454.56,104.625 454.56,101.889 455.42,100.201 C456.281,98.512 457.676,98.512 458.537,100.201 Z M458.537,100.201" />
            <path d="M454.726,97.48 C454.76,97.08 454.446,96.736 454.045,96.734 C453.64,96.732 453.32,97.077 453.354,97.48 L453.354,98.759 C453.353,99.058 453.394,99.355 453.476,99.643 C453.59,100.043 453.781,100.418 454.039,100.745 C454.309,101.087 454.649,101.371 455.044,101.555 C455.372,101.707 455.729,101.786 456.09,101.787 L456.444,100.591 C456.11,100.606 455.781,100.509 455.51,100.314 C455.224,100.109 455.023,99.812 454.891,99.487 C454.756,99.153 454.695,98.795 454.713,98.436 L454.726,97.48 Z M454.726,97.48" />
        </g>
        <g id="Black-S">
            <path d="M665,76 C664.808,76 664.627,76.095 664.523,76.256 L664.046,77.056 L663.109,78.658 L661.2,81.879 L657.417,88.303 L656.787,89.376 C656.37,89.534 655.969,89.722 655.56,89.905 L654.316,89.581 L647.091,87.723 L643.479,86.786 L641.672,86.326 L640.769,86.088 C640.582,86.047 640.376,86.106 640.241,86.241 C640.106,86.376 640.047,86.582 640.088,86.769 L640.326,87.672 L640.786,89.479 L641.724,93.091 L643.581,100.316 L643.905,101.56 C643.722,101.969 643.534,102.37 643.376,102.787 L642.303,103.417 L635.879,107.2 L632.658,109.109 L631.057,110.046 L630.256,110.523 C630.095,110.627 630,110.808 630,111 C630,111.192 630.095,111.373 630.256,111.477 L631.057,111.954 L632.658,112.891 L635.879,114.783 L642.303,118.583 L643.376,119.213 C643.534,119.63 643.722,120.031 643.905,120.44 L643.581,121.684 L641.724,128.909 L640.786,132.521 L640.326,134.328 L640.088,135.231 C640.047,135.418 640.106,135.607 640.241,135.742 C640.376,135.877 640.582,135.936 640.769,135.895 L641.672,135.674 L643.479,135.197 L647.091,134.277 L654.316,132.419 L655.56,132.095 C655.969,132.278 656.37,132.466 656.787,132.624 L657.417,133.697 L661.2,140.121 L663.109,143.342 L664.046,144.944 L664.523,145.744 C664.627,145.905 664.808,146 665,146 C665.192,146 665.373,145.905 665.477,145.744 L665.954,144.944 L666.891,143.342 L668.8,140.121 L672.583,133.697 L673.213,132.624 C673.63,132.466 674.031,132.278 674.44,132.095 L675.684,132.419 L682.909,134.277 L686.521,135.197 L688.328,135.674 L689.231,135.895 C689.418,135.936 689.624,135.877 689.759,135.742 C689.894,135.607 689.953,135.418 689.912,135.231 L689.674,134.328 L689.214,132.521 L688.277,128.909 L686.419,121.684 L686.095,120.44 C686.278,120.031 686.466,119.63 686.624,119.213 L687.697,118.583 L694.121,114.783 L697.342,112.891 L698.944,111.954 L699.744,111.477 C699.905,111.373 700,111.192 700,111 C700,110.808 699.905,110.627 699.744,110.523 L698.944,110.046 L697.342,109.109 L694.121,107.2 L687.697,103.417 L686.624,102.787 C686.466,102.37 686.278,101.969 686.095,101.56 L686.419,100.316 L688.277,93.091 L689.214,89.479 L689.674,87.672 L689.912,86.769 C689.953,86.582 689.894,86.376 689.759,86.241 C689.624,86.106 689.418,86.047 689.231,86.088 L688.328,86.326 L686.521,86.786 L682.909,87.723 L675.684,89.581 L674.44,89.905 C674.031,89.722 673.63,89.534 673.213,89.376 L672.583,88.303 L668.8,81.879 L666.891,78.658 L665.954,77.056 L665.477,76.256 C665.373,76.095 665.192,76 665,76 Z M665,90.296 C670.3,90.296 675.594,92.319 679.637,96.363 C687.724,104.45 687.724,117.55 679.637,125.637 C671.55,133.724 658.45,133.724 650.363,125.637 C642.276,117.55 642.276,104.45 650.363,96.363 C654.406,92.319 659.7,90.296 665,90.296 Z M665,90.296" />
            <path d="M674.669,100.201 C675.529,101.889 675.529,104.625 674.669,106.314 C673.808,108.002 672.413,108.002 671.552,106.314 C670.692,104.625 670.692,101.889 671.552,100.201 C672.413,98.512 673.808,98.512 674.669,100.201 Z M674.669,100.201" />
            <path d="M670.858,97.48 C670.892,97.08 670.578,96.736 670.177,96.734 C669.772,96.732 669.453,97.077 669.486,97.48 L669.486,98.759 C669.485,99.058 669.526,99.355 669.608,99.643 C669.722,100.043 669.913,100.418 670.171,100.745 C670.441,101.087 670.781,101.371 671.176,101.555 C671.504,101.707 671.861,101.786 672.222,101.787 L672.576,100.591 C672.242,100.606 671.914,100.509 671.642,100.314 C671.357,100.109 671.155,99.812 671.023,99.487 C670.888,99.153 670.827,98.795 670.845,98.436 L670.858,97.48 Z M670.858,97.48" />
            <path d="M666.208,109.792 C666.875,110.459 666.875,111.541 666.208,112.208 C665.541,112.875 664.459,112.875 663.792,112.208 C663.125,111.541 663.125,110.459 663.792,109.792 C664.459,109.125 665.541,109.125 666.208,109.792 Z M666.208,109.792" />
            <path d="M656.481,116.425 C659.322,116.48 662.158,116.702 665,116.702 C667.842,116.702 670.678,116.48 673.519,116.425 C673.702,116.421 673.85,116.426 673.971,116.431 C674.091,116.436 674.183,116.45 674.257,116.476 C674.493,116.561 674.678,116.747 674.763,116.983 C674.797,117.076 674.814,117.174 674.815,117.272 C674.816,117.371 674.801,117.47 674.763,117.562 C674.671,117.789 674.463,117.936 674.257,118.069 C671.511,119.837 668.261,120.502 665,120.502 C661.743,120.502 658.482,119.833 655.743,118.069 C655.537,117.936 655.329,117.789 655.237,117.562 C655.199,117.47 655.184,117.371 655.185,117.272 C655.186,117.174 655.203,117.076 655.237,116.983 C655.322,116.747 655.507,116.561 655.743,116.476 C655.817,116.45 655.909,116.436 656.029,116.431 C656.15,116.426 656.298,116.421 656.481,116.425 Z M656.481,116.425" />
            <path d="M658.537,100.201 C659.397,101.889 659.397,104.625 658.537,106.314 C657.676,108.002 656.281,108.002 655.42,106.314 C654.56,104.625 654.56,101.889 655.42,100.201 C656.281,98.512 657.676,98.512 658.537,100.201 Z M658.537,100.201" />
            <path d="M654.726,97.48 C654.76,97.08 654.446,96.736 654.045,96.734 C653.64,96.732 653.32,97.077 653.354,97.48 L653.354,98.759 C653.353,99.058 653.394,99.355 653.476,99.643 C653.59,100.043 653.781,100.418 654.039,100.745 C654.309,101.087 654.649,101.371 655.044,101.555 C655.372,101.707 655.729,101.786 656.09,101.787 L656.444,100.591 C656.11,100.606 655.781,100.509 655.51,100.314 C655.225,100.109 655.023,99.812 654.891,99.487 C654.756,99.153 654.695,98.795 654.713,98.436 L654.726,97.48 Z M654.726,97.48" />
        </g>
    </g>
</svg>