<?xml version="1.0" encoding="UTF-8"?>
<svg height="600" width="800" xmlns="http://www.w3.org/2000/svg" xmlns:xlink="http://www.w3.org/1999/xlink">
    <g id="Notes" font-family="'LucidaGrande', 'Lucida Grande', sans-serif" font-size="13">
        <rect fill="white" height="600.0" width="800.0" x="0.0" y="0.0" />
        <g font-size="13">
            <text x="18.0" y="176.0">Small</text>
            <text x="18.0" y="376.0">Medium</text>
            <text x="18.0" y="576.0">Large</text>
        </g>
        <g font-size="9">
            <text x="250.0" y="30.0">Ultralight</text>
            <text x="450.0" y="30.0">Regular</text>
            <text x="650.0" y="30.0">Black</text>
            <text id="template-version" fill="#505050" text-anchor="end" x="785.0" y="575.0">Template v.3.0</text>
            <a href="https://wangchujiang.com/#/app">
                <text fill="#505050" text-anchor="end" x="785.0" y="590.0">https://wangchujiang.com/#/app</text>
            </a>
        </g>
    </g>
    <g id="Guides" stroke="rgb(39, 170, 225)" stroke-width="0.5">
        <path id="Capline-S" d="M18,76 l800,0" />
        <path id="H-reference" d="M85,145.755 L87.685,145.755 L113.369,79.287 L114.052,79.287 L114.052,76 L112.148,76 L85,145.755 Z M95.693,121.536 L130.996,121.536 L130.263,119.313 L96.474,119.313 L95.693,121.536 Z M139.15,145.755 L141.787,145.755 L114.638,76 L113.466,76 L113.466,79.287 L139.15,145.755 Z" stroke="none" />
        <path id="Baseline-S" d="M18,146 l800,0" />
        <path id="left-margin-Ultralight-S" d="M211,56 l0,110" />
        <path id="right-margin-Ultralight-S" d="M319,56 l0,110" />
        <path id="left-margin-Regular-S" d="M411,56 l0,110" />
        <path id="right-margin-Regular-S" d="M519,56 l0,110" />
        <path id="left-margin-Black-S" d="M611,56 l0,110" />
        <path id="right-margin-Black-S" d="M719,56 l0,110" />
        <path id="Capline-M" d="M18,276 l800,0" />
        <path id="Baseline-M" d="M18,346 l800,0" />
        <path id="Capline-L" d="M18,476 l800,0" />
        <path id="Baseline-L" d="M18,546 l800,0" />
    </g>
    <g id="Symbols">
        <g id="Ultralight-S">
            <path d="M274.197,95.781 L277.511,95.781 C278.15,95.781 278.533,95.781 278.789,95.888 C279.157,96.022 279.447,96.312 279.581,96.68 C279.688,96.936 279.688,97.319 279.688,97.958 L279.688,107.334 C279.688,107.973 279.688,108.356 279.581,108.612 C279.447,108.98 279.157,109.27 278.789,109.404 C278.533,109.511 278.15,109.511 277.511,109.511 L274.197,109.511 C273.558,109.511 273.175,109.511 272.919,109.404 C272.551,109.27 272.261,108.98 272.127,108.612 C272.02,108.356 272.02,107.973 272.02,107.334 L272.02,97.958 C272.02,97.319 272.02,96.936 272.127,96.68 C272.261,96.312 272.551,96.022 272.919,95.888 C273.175,95.781 273.558,95.781 274.197,95.781 Z M274.197,95.781" />
            <path d="M285.791,95.781 L289.366,95.781 C289.967,95.781 290.327,95.781 290.567,95.881 C290.914,96.007 291.186,96.28 291.312,96.626 C291.413,96.866 291.413,97.227 291.413,97.827 L291.413,107.465 C291.413,108.065 291.413,108.425 291.312,108.666 C291.186,109.012 290.914,109.285 290.567,109.411 C290.327,109.511 289.967,109.511 289.366,109.511 L285.791,109.511 C285.191,109.511 284.83,109.511 284.59,109.411 C284.244,109.285 283.971,109.012 283.845,108.666 C283.745,108.425 283.745,108.065 283.745,107.465 L283.745,97.827 C283.745,97.227 283.745,96.866 283.845,96.626 C283.971,96.28 284.244,96.007 284.59,95.881 C284.83,95.781 285.191,95.781 285.791,95.781 Z M285.791,95.781" />
            <path d="M297.513,95.781 L301.094,95.781 C301.694,95.781 302.054,95.781 302.294,95.881 C302.639,96.007 302.912,96.279 303.037,96.625 C303.138,96.865 303.138,97.224 303.138,97.824 L303.138,107.468 C303.138,108.067 303.138,108.427 303.037,108.667 C302.912,109.013 302.639,109.285 302.294,109.411 C302.054,109.511 301.694,109.511 301.094,109.511 L297.513,109.511 C296.913,109.511 296.553,109.511 296.314,109.411 C295.968,109.285 295.696,109.013 295.57,108.667 C295.47,108.427 295.47,108.067 295.47,107.468 L295.47,97.824 C295.47,97.224 295.47,96.865 295.57,96.625 C295.696,96.279 295.968,96.007 296.314,95.881 C296.553,95.781 296.913,95.781 297.513,95.781 Z M297.513,95.781" />
            <path d="M268.313,112.482 L271.67,112.482 C272.302,112.482 272.682,112.482 272.935,112.588 C273.3,112.72 273.587,113.008 273.72,113.373 C273.825,113.626 273.825,114.005 273.825,114.638 L273.825,124.056 C273.825,124.689 273.825,125.069 273.72,125.322 C273.587,125.686 273.3,125.974 272.935,126.106 C272.682,126.212 272.302,126.212 271.67,126.212 L268.313,126.212 C267.681,126.212 267.301,126.212 267.048,126.106 C266.683,125.974 266.396,125.686 266.263,125.322 C266.158,125.069 266.158,124.689 266.158,124.056 L266.158,114.638 C266.158,114.005 266.158,113.626 266.263,113.373 C266.396,113.008 266.683,112.72 267.048,112.588 C267.301,112.482 267.681,112.482 268.313,112.482 Z M268.313,112.482" />
            <path d="M280.189,112.482 L283.243,112.482 C283.92,112.482 284.326,112.482 284.597,112.595 C284.988,112.737 285.295,113.045 285.437,113.435 C285.55,113.706 285.55,114.112 285.55,114.789 L285.55,123.905 C285.55,124.582 285.55,124.988 285.437,125.259 C285.295,125.649 284.988,125.957 284.597,126.099 C284.326,126.212 283.92,126.212 283.243,126.212 L280.189,126.212 C279.512,126.212 279.106,126.212 278.835,126.099 C278.445,125.957 278.138,125.649 277.995,125.259 C277.882,124.988 277.882,124.582 277.882,123.905 L277.882,114.789 C277.882,114.112 277.882,113.706 277.995,113.435 C278.138,113.045 278.445,112.737 278.835,112.595 C279.106,112.482 279.512,112.482 280.189,112.482 Z M280.189,112.482" />
            <path d="M291.646,112.482 L295.236,112.482 C295.835,112.482 296.194,112.482 296.433,112.582 C296.778,112.708 297.05,112.979 297.175,113.324 C297.275,113.564 297.275,113.923 297.275,114.521 L297.275,124.173 C297.275,124.772 297.275,125.131 297.175,125.37 C297.05,125.715 296.778,125.987 296.433,126.112 C296.194,126.212 295.835,126.212 295.236,126.212 L291.646,126.212 C291.048,126.212 290.689,126.212 290.449,126.112 C290.104,125.987 289.833,125.715 289.707,125.37 C289.607,125.131 289.607,124.772 289.607,124.173 L289.607,114.521 C289.607,113.923 289.607,113.564 289.707,113.324 C289.833,112.979 290.104,112.708 290.449,112.582 C290.689,112.482 291.048,112.482 291.646,112.482 Z M291.646,112.482" />
            <path d="M303.366,112.482 L306.966,112.482 C307.563,112.482 307.921,112.482 308.16,112.582 C308.504,112.707 308.775,112.978 308.9,113.322 C309,113.561 309,113.919 309,114.516 L309,124.178 C309,124.775 309,125.133 308.9,125.372 C308.775,125.716 308.504,125.987 308.16,126.112 C307.921,126.212 307.563,126.212 306.966,126.212 L303.366,126.212 C302.769,126.212 302.411,126.212 302.172,126.112 C301.828,125.987 301.557,125.716 301.432,125.372 C301.332,125.133 301.332,124.775 301.332,124.178 L301.332,114.516 C301.332,113.919 301.332,113.561 301.432,113.322 C301.557,112.978 301.828,112.707 302.172,112.582 C302.411,112.482 302.769,112.482 303.366,112.482 Z M303.366,112.482" />
            <path d="M238.131,86.777 C231.932,86.777 225.73,89.135 221,93.866 C211.54,103.326 211.54,118.668 221,128.128 C230.46,137.588 245.803,137.588 255.263,128.128 C264.723,118.668 264.723,103.326 255.263,93.866 C250.533,89.135 244.331,86.777 238.131,86.777 Z M238.131,103.221 C240.122,103.221 242.115,103.976 243.633,105.495 C246.671,108.532 246.671,113.462 243.633,116.499 C240.596,119.536 235.667,119.536 232.629,116.499 C229.592,113.462 229.592,108.532 232.629,105.495 C234.148,103.976 236.141,103.221 238.131,103.221 Z M238.131,103.221" />
            <path d="M239.372,109.756 C240.057,110.441 240.057,111.552 239.372,112.237 C238.687,112.923 237.576,112.923 236.891,112.237 C236.205,111.552 236.205,110.441 236.891,109.756 C237.576,109.07 238.687,109.07 239.372,109.756 Z M239.372,109.756" />
        </g>
        <g id="Regular-S">
            <path d="M474.197,95.781 L477.511,95.781 C478.15,95.781 478.533,95.781 478.789,95.888 C479.157,96.022 479.447,96.312 479.581,96.68 C479.688,96.936 479.688,97.319 479.688,97.958 L479.688,107.334 C479.688,107.973 479.688,108.356 479.581,108.612 C479.447,108.98 479.157,109.27 478.789,109.404 C478.533,109.511 478.15,109.511 477.511,109.511 L474.197,109.511 C473.558,109.511 473.175,109.511 472.919,109.404 C472.551,109.27 472.261,108.98 472.127,108.612 C472.02,108.356 472.02,107.973 472.02,107.334 L472.02,97.958 C472.02,97.319 472.02,96.936 472.127,96.68 C472.261,96.312 472.551,96.022 472.919,95.888 C473.175,95.781 473.558,95.781 474.197,95.781 Z M474.197,95.781" />
            <path d="M485.791,95.781 L489.366,95.781 C489.967,95.781 490.327,95.781 490.567,95.881 C490.914,96.007 491.186,96.28 491.312,96.626 C491.413,96.866 491.413,97.227 491.413,97.827 L491.413,107.465 C491.413,108.065 491.413,108.425 491.312,108.666 C491.186,109.012 490.914,109.285 490.567,109.411 C490.327,109.511 489.967,109.511 489.366,109.511 L485.791,109.511 C485.191,109.511 484.83,109.511 484.59,109.411 C484.244,109.285 483.971,109.012 483.845,108.666 C483.745,108.425 483.745,108.065 483.745,107.465 L483.745,97.827 C483.745,97.227 483.745,96.866 483.845,96.626 C483.971,96.28 484.244,96.007 484.59,95.881 C484.83,95.781 485.191,95.781 485.791,95.781 Z M485.791,95.781" />
            <path d="M497.513,95.781 L501.094,95.781 C501.694,95.781 502.054,95.781 502.294,95.881 C502.639,96.007 502.912,96.279 503.037,96.625 C503.138,96.865 503.138,97.224 503.138,97.824 L503.138,107.468 C503.138,108.067 503.138,108.427 503.037,108.667 C502.912,109.013 502.639,109.285 502.294,109.411 C502.054,109.511 501.694,109.511 501.094,109.511 L497.513,109.511 C496.913,109.511 496.553,109.511 496.314,109.411 C495.968,109.285 495.696,109.013 495.57,108.667 C495.47,108.427 495.47,108.067 495.47,107.468 L495.47,97.824 C495.47,97.224 495.47,96.865 495.57,96.625 C495.696,96.279 495.968,96.007 496.314,95.881 C496.553,95.781 496.913,95.781 497.513,95.781 Z M497.513,95.781" />
            <path d="M468.313,112.482 L471.67,112.482 C472.302,112.482 472.682,112.482 472.935,112.588 C473.3,112.72 473.587,113.008 473.72,113.373 C473.825,113.626 473.825,114.005 473.825,114.638 L473.825,124.056 C473.825,124.689 473.825,125.069 473.72,125.322 C473.587,125.686 473.3,125.974 472.935,126.106 C472.682,126.212 472.302,126.212 471.67,126.212 L468.313,126.212 C467.681,126.212 467.301,126.212 467.048,126.106 C466.683,125.974 466.396,125.686 466.263,125.322 C466.158,125.069 466.158,124.689 466.158,124.056 L466.158,114.638 C466.158,114.005 466.158,113.626 466.263,113.373 C466.396,113.008 466.683,112.72 467.048,112.588 C467.301,112.482 467.681,112.482 468.313,112.482 Z M468.313,112.482" />
            <path d="M480.189,112.482 L483.243,112.482 C483.92,112.482 484.326,112.482 484.597,112.595 C484.988,112.737 485.295,113.045 485.437,113.435 C485.55,113.706 485.55,114.112 485.55,114.789 L485.55,123.905 C485.55,124.582 485.55,124.988 485.437,125.259 C485.295,125.649 484.988,125.957 484.597,126.099 C484.326,126.212 483.92,126.212 483.243,126.212 L480.189,126.212 C479.512,126.212 479.106,126.212 478.835,126.099 C478.445,125.957 478.138,125.649 477.995,125.259 C477.882,124.988 477.882,124.582 477.882,123.905 L477.882,114.789 C477.882,114.112 477.882,113.706 477.995,113.435 C478.138,113.045 478.445,112.737 478.835,112.595 C479.106,112.482 479.512,112.482 480.189,112.482 Z M480.189,112.482" />
            <path d="M491.646,112.482 L495.236,112.482 C495.835,112.482 496.194,112.482 496.433,112.582 C496.778,112.708 497.05,112.979 497.175,113.324 C497.275,113.564 497.275,113.923 497.275,114.521 L497.275,124.173 C497.275,124.772 497.275,125.131 497.175,125.37 C497.05,125.715 496.778,125.987 496.433,126.112 C496.194,126.212 495.835,126.212 495.236,126.212 L491.646,126.212 C491.048,126.212 490.689,126.212 490.449,126.112 C490.104,125.987 489.833,125.715 489.707,125.37 C489.607,125.131 489.607,124.772 489.607,124.173 L489.607,114.521 C489.607,113.923 489.607,113.564 489.707,113.324 C489.833,112.979 490.104,112.708 490.449,112.582 C490.689,112.482 491.048,112.482 491.646,112.482 Z M491.646,112.482" />
            <path d="M503.366,112.482 L506.966,112.482 C507.563,112.482 507.921,112.482 508.16,112.582 C508.504,112.707 508.775,112.978 508.9,113.322 C509,113.561 509,113.919 509,114.516 L509,124.178 C509,124.775 509,125.133 508.9,125.372 C508.775,125.716 508.504,125.987 508.16,126.112 C507.921,126.212 507.563,126.212 506.966,126.212 L503.366,126.212 C502.769,126.212 502.411,126.212 502.172,126.112 C501.828,125.987 501.557,125.716 501.432,125.372 C501.332,125.133 501.332,124.775 501.332,124.178 L501.332,114.516 C501.332,113.919 501.332,113.561 501.432,113.322 C501.557,112.978 501.828,112.707 502.172,112.582 C502.411,112.482 502.769,112.482 503.366,112.482 Z M503.366,112.482" />
            <path d="M438.131,86.777 C431.932,86.777 425.73,89.135 421,93.866 C411.54,103.326 411.54,118.668 421,128.128 C430.46,137.588 445.803,137.588 455.263,128.128 C464.723,118.668 464.723,103.326 455.263,93.866 C450.533,89.135 444.331,86.777 438.131,86.777 Z M438.131,103.221 C440.122,103.221 442.115,103.976 443.633,105.495 C446.671,108.532 446.671,113.462 443.633,116.499 C440.596,119.536 435.667,119.536 432.629,116.499 C429.592,113.462 429.592,108.532 432.629,105.495 C434.148,103.976 436.141,103.221 438.131,103.221 Z M438.131,103.221" />
            <path d="M439.372,109.756 C440.057,110.441 440.057,111.552 439.372,112.237 C438.687,112.923 437.576,112.923 436.891,112.237 C436.205,111.552 436.205,110.441 436.891,109.756 C437.576,109.07 438.687,109.07 439.372,109.756 Z M439.372,109.756" />
        </g>
        <g id="Black-S">
            <path d="M674.197,95.781 L677.511,95.781 C678.15,95.781 678.533,95.781 678.789,95.888 C679.157,96.022 679.447,96.312 679.581,96.68 C679.688,96.936 679.688,97.319 679.688,97.958 L679.688,107.334 C679.688,107.973 679.688,108.356 679.581,108.612 C679.447,108.98 679.157,109.27 678.789,109.404 C678.533,109.511 678.15,109.511 677.511,109.511 L674.197,109.511 C673.558,109.511 673.175,109.511 672.919,109.404 C672.551,109.27 672.261,108.98 672.127,108.612 C672.02,108.356 672.02,107.973 672.02,107.334 L672.02,97.958 C672.02,97.319 672.02,96.936 672.127,96.68 C672.261,96.312 672.551,96.022 672.919,95.888 C673.175,95.781 673.558,95.781 674.197,95.781 Z M674.197,95.781" />
            <path d="M685.791,95.781 L689.366,95.781 C689.967,95.781 690.327,95.781 690.567,95.881 C690.914,96.007 691.186,96.28 691.312,96.626 C691.413,96.866 691.413,97.227 691.413,97.827 L691.413,107.465 C691.413,108.065 691.413,108.425 691.312,108.666 C691.186,109.012 690.914,109.285 690.567,109.411 C690.327,109.511 689.967,109.511 689.366,109.511 L685.791,109.511 C685.191,109.511 684.83,109.511 684.59,109.411 C684.244,109.285 683.971,109.012 683.845,108.666 C683.745,108.425 683.745,108.065 683.745,107.465 L683.745,97.827 C683.745,97.227 683.745,96.866 683.845,96.626 C683.971,96.28 684.244,96.007 684.59,95.881 C684.83,95.781 685.191,95.781 685.791,95.781 Z M685.791,95.781" />
            <path d="M697.513,95.781 L701.094,95.781 C701.694,95.781 702.054,95.781 702.294,95.881 C702.639,96.007 702.912,96.279 703.037,96.625 C703.138,96.865 703.138,97.224 703.138,97.824 L703.138,107.468 C703.138,108.067 703.138,108.427 703.037,108.667 C702.912,109.013 702.639,109.285 702.294,109.411 C702.054,109.511 701.694,109.511 701.094,109.511 L697.513,109.511 C696.913,109.511 696.553,109.511 696.314,109.411 C695.968,109.285 695.696,109.013 695.57,108.667 C695.47,108.427 695.47,108.067 695.47,107.468 L695.47,97.824 C695.47,97.224 695.47,96.865 695.57,96.625 C695.696,96.279 695.968,96.007 696.314,95.881 C696.553,95.781 696.913,95.781 697.513,95.781 Z M697.513,95.781" />
            <path d="M668.313,112.482 L671.67,112.482 C672.302,112.482 672.682,112.482 672.935,112.588 C673.3,112.72 673.587,113.008 673.72,113.373 C673.825,113.626 673.825,114.005 673.825,114.638 L673.825,124.056 C673.825,124.689 673.825,125.069 673.72,125.322 C673.587,125.686 673.3,125.974 672.935,126.106 C672.682,126.212 672.302,126.212 671.67,126.212 L668.313,126.212 C667.681,126.212 667.301,126.212 667.048,126.106 C666.683,125.974 666.396,125.686 666.263,125.322 C666.158,125.069 666.158,124.689 666.158,124.056 L666.158,114.638 C666.158,114.005 666.158,113.626 666.263,113.373 C666.396,113.008 666.683,112.72 667.048,112.588 C667.301,112.482 667.681,112.482 668.313,112.482 Z M668.313,112.482" />
            <path d="M680.189,112.482 L683.243,112.482 C683.92,112.482 684.326,112.482 684.597,112.595 C684.988,112.737 685.295,113.045 685.437,113.435 C685.55,113.706 685.55,114.112 685.55,114.789 L685.55,123.905 C685.55,124.582 685.55,124.988 685.437,125.259 C685.295,125.649 684.988,125.957 684.597,126.099 C684.326,126.212 683.92,126.212 683.243,126.212 L680.189,126.212 C679.512,126.212 679.106,126.212 678.835,126.099 C678.445,125.957 678.138,125.649 677.995,125.259 C677.882,124.988 677.882,124.582 677.882,123.905 L677.882,114.789 C677.882,114.112 677.882,113.706 677.995,113.435 C678.138,113.045 678.445,112.737 678.835,112.595 C679.106,112.482 679.512,112.482 680.189,112.482 Z M680.189,112.482" />
            <path d="M691.646,112.482 L695.236,112.482 C695.835,112.482 696.194,112.482 696.433,112.582 C696.778,112.708 697.05,112.979 697.175,113.324 C697.275,113.564 697.275,113.923 697.275,114.521 L697.275,124.173 C697.275,124.772 697.275,125.131 697.175,125.37 C697.05,125.715 696.778,125.987 696.433,126.112 C696.194,126.212 695.835,126.212 695.236,126.212 L691.646,126.212 C691.048,126.212 690.689,126.212 690.449,126.112 C690.104,125.987 689.833,125.715 689.707,125.37 C689.607,125.131 689.607,124.772 689.607,124.173 L689.607,114.521 C689.607,113.923 689.607,113.564 689.707,113.324 C689.833,112.979 690.104,112.708 690.449,112.582 C690.689,112.482 691.048,112.482 691.646,112.482 Z M691.646,112.482" />
            <path d="M703.366,112.482 L706.966,112.482 C707.563,112.482 707.921,112.482 708.16,112.582 C708.504,112.707 708.775,112.978 708.9,113.322 C709,113.561 709,113.919 709,114.516 L709,124.178 C709,124.775 709,125.133 708.9,125.372 C708.775,125.716 708.504,125.987 708.16,126.112 C707.921,126.212 707.563,126.212 706.966,126.212 L703.366,126.212 C702.769,126.212 702.411,126.212 702.172,126.112 C701.828,125.987 701.557,125.716 701.432,125.372 C701.332,125.133 701.332,124.775 701.332,124.178 L701.332,114.516 C701.332,113.919 701.332,113.561 701.432,113.322 C701.557,112.978 701.828,112.707 702.172,112.582 C702.411,112.482 702.769,112.482 703.366,112.482 Z M703.366,112.482" />
            <path d="M638.131,86.777 C631.932,86.777 625.73,89.135 621,93.866 C611.54,103.326 611.54,118.668 621,128.128 C630.46,137.588 645.803,137.588 655.263,128.128 C664.723,118.668 664.723,103.326 655.263,93.866 C650.533,89.135 644.331,86.777 638.131,86.777 Z M638.131,103.221 C640.122,103.221 642.115,103.976 643.633,105.495 C646.671,108.532 646.671,113.462 643.633,116.499 C640.596,119.536 635.667,119.536 632.629,116.499 C629.592,113.462 629.592,108.532 632.629,105.495 C634.148,103.976 636.141,103.221 638.131,103.221 Z M638.131,103.221" />
            <path d="M639.372,109.756 C640.057,110.441 640.057,111.552 639.372,112.237 C638.687,112.923 637.576,112.923 636.891,112.237 C636.205,111.552 636.205,110.441 636.891,109.756 C637.576,109.07 638.687,109.07 639.372,109.756 Z M639.372,109.756" />
        </g>
    </g>
</svg>